<svg width="30" height="31" viewBox="0 0 30 31" fill="none" xmlns="http://www.w3.org/2000/svg">
<path fill-rule="evenodd" clip-rule="evenodd" d="M2.5 1.29166C1.80965 1.29166 1.25 1.86996 1.25 2.58332C1.25 3.29668 1.80965 3.87499 2.5 3.87499H4.02402L8.47931 22.2902C7.16595 22.893 6.25 24.2526 6.25 25.8333C6.25 27.9735 7.92894 29.7083 10 29.7083C12.0711 29.7083 13.75 27.9735 13.75 25.8333C13.75 25.3805 13.6748 24.9457 13.5366 24.5417H18.9634C18.8253 24.9457 18.75 25.3805 18.75 25.8333C18.75 27.9735 20.4289 29.7083 22.5 29.7083C24.5711 29.7083 26.25 27.9735 26.25 25.8333C26.25 23.6932 24.5711 21.9583 22.5 21.9583H10.976L10.351 19.375H22.5C25.0802 19.375 26.6274 17.6905 27.4859 15.8305C28.3249 14.0129 28.6169 11.8406 28.7188 10.2606C28.8605 8.06017 27.1004 6.45832 25.1514 6.45832H7.22598L6.44939 3.24844C6.17115 2.09842 5.1712 1.29166 4.02402 1.29166H2.5ZM22.5 16.7917H9.72598L7.85098 9.04166H25.1514C25.8427 9.04166 26.2579 9.56704 26.2243 10.0889C26.1293 11.5632 25.8632 13.3452 25.2295 14.7184C24.6152 16.0491 23.7751 16.7917 22.5 16.7917ZM22.5 27.117C21.8139 27.117 21.2578 26.5423 21.2578 25.8333C21.2578 25.1243 21.8139 24.5497 22.5 24.5497C23.1861 24.5497 23.7422 25.1243 23.7422 25.8333C23.7422 26.5423 23.1861 27.117 22.5 27.117ZM8.75771 25.8333C8.75771 26.5423 9.3139 27.117 10 27.117C10.6861 27.117 11.2423 26.5423 11.2423 25.8333C11.2423 25.1243 10.6861 24.5497 10 24.5497C9.3139 24.5497 8.75771 25.1243 8.75771 25.8333Z" fill="white"/>
</svg>
